
<svg xmlns="http://www.w3.org/2000/svg"
   width="2000" height="950"
   viewBox="0 0 1300 900">

<!-- ===== GLYPH DEFINITIONS (LOCAL COORDS ONLY) ===== -->
<defs>
<!-- LETTERS -->
  <!-- P -->
  <g id="p">
    <line x1="0" y1="0" x2="0" y2="100"/>
    <line x1="0" y1="0" x2="50" y2="0"/>
  </g>

  <!-- B -->
  <g id="b">
    <line x1="0" y1="0" x2="0" y2="100"/>
    <line x1="0" y1="100" x2="50" y2="100"/>
  </g>

  <!-- T -->
  <g id="t">
    <line x1="50" y1="0" x2="50" y2="100"/>
    <line x1="0" y1="0" x2="50" y2="0"/>
  </g>

  <!-- K -->
  <g id="k">
    <line x1="0" y1="0" x2="0" y2="50"/>
    <line x1="0" y1="50" x2="50" y2="100"/>
  </g>

  <!-- F -->
  <g id="f">
    <line x1="0" y1="0" x2="0" y2="50"/>
    <line x1="0" y1="0" x2="50" y2="0"/>
  </g>

  <!-- Sh -->
  <g id="sh">
    <line x1="0" y1="0" x2="0" y2="50"/>
    <line x1="0" y1="0" x2="50" y2="50"/>
  </g>

  <!-- Zh -->
  <g id="zh">
    <line x1="0" y1="0" x2="0" y2="50"/>
  </g>

  <!-- H -->
  <g id="h">
    <line x1="0" y1="0" x2="0" y2="50"/>
    <line x1="0" y1="50" x2="50" y2="50"/>
    <line x1="50" y1="50" x2="50" y2="100"/>
  </g>

  <!-- U -->
  <g id="u">
    <line x1="0" y1="0" x2="0" y2="50"/>
    <line x1="0" y1="50" x2="50" y2="50"/>
    <line x1="0" y1="0" x2="50" y2="0"/>
    <line x1="50" y1="0" x2="50" y2="50"/>
  </g>

  <!-- O -->
  <g id="o">
    <line x1="0" y1="0" x2="0" y2="50"/>
    <line x1="0" y1="50" x2="50" y2="50"/>
    <line x1="0" y1="0" x2="50" y2="0"/>
  </g>

  <!-- Ough -->
  <g id="ough">
    <line x1="0" y1="0" x2="0" y2="50"/>
    <line x1="0" y1="50" x2="50" y2="50"/>
    <line x1="0" y1="0" x2="50" y2="50"/>
  </g>

  <!-- a -->
  <g id="a">
    <line x1="0" y1="0" x2="0" y2="50"/>
    <line x1="0" y1="0" x2="50" y2="50"/>
    <line x1="0" y1="50" x2="50" y2="100"/>
  </g>

  <!-- * -->
  <g id="*">
    <line x1="0" y1="0" x2="0" y2="50"/>
    <line x1="0" y1="0" x2="50" y2="50"/>
    <line x1="0" y1="50" x2="-50" y2="100"/>
  </g>

  <!-- Mb -->
  <g id="mb">
    <line x1="0" y1="0" x2="0" y2="50"/>
    <line x1="0" y1="50" x2="50" y2="50"/>
    <line x1="0" y1="50" x2="50" y2="100"/>
  </g>

  <!-- Ng -->
  <g id="ng">
    <line x1="0" y1="0" x2="0" y2="50"/>
    <line x1="0" y1="50" x2="50" y2="0"/>
    <line x1="0" y1="50" x2="50" y2="100"/>
  </g>
<!-- PUNCTUATION -->
  <!-- . -->
  <g id=".">
    <line x1="0" y1="0" x2="0" y2="50"/>
    <line x1="0" y1="50" x2="50" y2="100"/>
    <line x1="0" y1="50" x2="-50" y2="100"/>
  </g>
  <!-- ? -->
  <g id="?">
    <use href="#." transform="translate(0,50) scale(1,-1)"/>
  </g>
  <!-- ! -->
  <g id="!">
    <line x1="0" y1="50" x2="0" y2="-50"/>
    <line x1="0" y1="50" x2="50" y2="0"/>
    <line x1="0" y1="-50" x2="50" y2="-50"/>
  </g>
  <!-- , -->
  <g id=",">
    <line x1="0" y1="0" x2="0" y2="200"/>
  </g>
  <!-- -- -->
  <g id="--">
    <use href="#," transform="translate(0,0)"/>
    <use href="#," transform="translate(25,0)"/>
  </g>

<!-- NUMBERS -->
  <!-- shazho (10^9) -->
  <g id="shazho">
    <use href="#sh" transform="translate(50,0) scale(-1,1)"/>
    <use href="#a" transform="translate(75,0)"/>
    <use href="#zh" transform="translate(150,50)"/>
    <use href="#o" transform="translate(175,50)"/>
  </g>

  <!-- ngpangshop (10^8) -->
  <g id="ngpangshop">
    <use href="#ng" transform="translate(50,0) scale(-1,1)"/>
    <use href="#p" transform="translate(75,0)"/>
    <use href="#a" transform="translate(150,0)"/>
    <use href="#ng" transform="translate(225,0)"/>
    <use href="#sh" transform="translate(300,0) scale(-1,1)"/>
    <use href="#o" transform="translate(325,0)"/>
    <use href="#p" transform="translate(400,0)"/>
  </g>

  <!-- pazhngahop (10^7) -->
  <g id="pazhngahop">
    <use href="#p" transform="translate(50,0), scale(-1,1)"/>
    <use href="#a" transform="translate(75,0)"/>
    <use href="#zh" transform="translate(150,0)"/>
    <use href="#ng" transform="translate(175,0)"/>
    <use href="#a" transform="translate(250,0)"/>
    <use href="#h" transform="translate(325,0)"/>
    <use href="#o" transform="translate(400,50)"/>
    <use href="#p" transform="translate(475,0)"/>
  </g>

  <!-- mbokngshop (10^6) -->
  <g id="mbokngshop">
    <use href="#mb" transform="translate(50,0) scale(-1,1)"/>
    <use href="#o" transform="translate(75,0)"/>
    <use href="#k" transform="translate(150,0)"/>
    <use href="#ng" transform="translate(175,0)"/>
    <use href="#sh" transform="translate(250,0) scale(-1,1)"/>
    <use href="#o" transform="translate(275,0)"/>
    <use href="#p" transform="translate(350,0)"/>
  </g>

  <!-- ngshop (10^5) -->
  <g id="ngshop">
    <use href="#ng" transform="translate(0,0)"/>
    <use href="#sh" transform="translate(75,0) scale(-1,1)"/>
    <use href="#o" transform="translate(100,0)"/>
    <use href="#p" transform="translate(175,0)"/>
  </g>

  <!-- ngpa (10^4) -->
  <g id="ngpa">
    <use href="#ng" transform="translate(50,0) scale(-1,1)"/>
    <use href="#p" transform="translate(75,0)"/>
    <use href="#a" transform="translate(150,0)"/>
  </g>

  <!-- pazh (10^3) -->
  <g id="pazh">
    <use href="#p" transform="translate(50,0) scale(-1,1)"/>
    <use href="#a" transform="translate(75,0)"/>
    <use href="#zh" transform="translate(150,50)"/>
  </g>

  <!-- mbok (10^2) -->
  <g id="mbok">
    <use href="#mb" transform="translate(50,0) scale(-1,1)"/>
    <use href="#o" transform="translate(75,0)"/>
    <use href="#k" transform="translate(150,0)"/>
  </g>


  <!-- o (0), already exists -->

  <!-- u (1), already exists -->

  <!-- po (2) -->
  <g id="po">
    <use href="#p" transform="translate(0,0)"/>
    <use href="#o" transform="translate(25,50)"/>
  </g>

  <!-- ush (3) -->
  <g id="ush">
    <use href="#u" transform="translate(0,0)"/>
    <use href="#sh" transform="translate(75,0)"/>
  </g>

  <!-- ak (4) -->
  <g id="ak">
    <use href="#a" transform="translate(0,0)"/>
    <use href="#k" transform="translate(75,0)"/>
  </g>

  <!-- mba (5) -->
  <g id="mba">
    <use href="#mb" transform="translate(0,0)"/>
    <use href="#a" transform="translate(75,0)"/>
  </g>

  <!-- mbu (6) -->
  <g id="mbu">
    <use href="#mb" transform="translate(0,0)"/>
    <use href="#u" transform="translate(75,50)"/>
  </g>

  <!-- fo (7) -->
  <g id="fo">
    <use href="#f" transform="translate(0,0)"/>
    <use href="#o" transform="translate(75,0)"/>
  </g>

  <!-- fu (8) -->
  <g id="fu">
    <use href="#f" transform="translate(0,0)"/>
    <use href="#u" transform="translate(75,0)"/>
  </g>

  <!-- zho (9) -->
  <g id="zho">
    <use href="#zh" transform="translate(0,0)"/>
    <use href="#o" transform="translate(25,0)"/>
  </g>

  <!-- kap (A) -->
  <g id="kap">
    <use href="#k" transform="translate(0,0)"/>
    <use href="#a" transform="translate(25,0)"/>
    <use href="#p" transform="translate(100,0)">
  </g>

  <!-- sh (B) -->
  <g id="sh">
    <use href="#sh" transform="translate(0,0)"/>
  </g>

  <!-- * (10), already exists -->

  <!-- *u (11) -->
  <g id="*u">
    <use href="#*" transform="translate(0,0)"/>
    <use href="#u" transform="translate(0,75)"/>
  </g>

  <!-- *po (12) -->
  <g id="*po">
    <use href="#*" transform="translate(0,0)"/>
    <use href="#po" transform="translate(0,75)"/>
  </g>

  <!-- *ush (13) -->
  <g id="*ush">
    <use href="#*" transform="translate(0,0)"/>
    <use href="#ush" transform="translate(0,75)"/>
  </g>

  <!-- *ak (14) -->
  <g id="*ak">
    <use href="#*" transform="translate(0,0)"/>
    <use href="#ak" transform="translate(0,75)"/>
  </g>

  <!-- *mba (15) -->
  <g id="*mba">
    <use href="#*" transform="translate(0,0)"/>
    <use href="#mba" transform="translate(0,75)"/>
  </g>

  <!-- *mbu (16) -->
  <g id="*mbu">
    <use href="#*" transform="translate(0,0)"/>
    <use href="#mbu" transform="translate(0,75)"/>
  </g>

  <!-- *fo (17) -->
  <g id="*fo">
    <use href="#*" transform="translate(0,0)"/>
    <use href="#fo" transform="translate(0,75)"/>
  </g>

  <!-- *fu (18) -->
  <g id="*fu">
    <use href="#*" transform="translate(0,0)"/>
    <use href="#fu" transform="translate(0,75)"/>
  </g>

  <!-- *zho (19) -->
  <g id="*zho">
    <use href="#*" transform="translate(0,0)"/>
    <use href="#zho" transform="translate(0,75)"/>
  </g>

  <!-- *kap (1A) -->
  <g id="*kap">
    <use href="#*" transform="translate(0,0)"/>
    <use href="#kap" transform="translate(0,75)"/>
  </g>

  <!-- *sh (1B) -->
  <g id="*sh">
    <use href="#*" transform="translate(0,0)"/>
    <use href="#sh" transform="translate(0,75)"/>
  </g>

  <!-- po* (20) -->
  <g id="po*">
    <use href="#po" transform="translate(0,0)"/>
    <use href="#*" transform="translate(150,0)"/>
  </g>

  <!-- po*u (21) -->
  <g id="po*u">
    <use href="#po" transform="translate(0,0)"/>
    <use href="#*u" transform="translate(150,0)"/>
  </g>

  <!-- po*po (22) -->
  <g id="po*po">
    <use href="#po" transform="translate(0,0)"/>
    <use href="#*po" transform="translate(150,0)"/>
  </g>

  <!-- po*ush (23) -->
  <g id="po*ush">
    <use href="#po" transform="translate(0,0)"/>
    <use href="#*ush" transform="translate(150,0)"/>
  </g>

  <!-- po*ak (24) -->
  <g id="po*ak">
    <use href="#po" transform="translate(0,0)"/>
    <use href="#*ak" transform="translate(150,0)"/>
  </g>

  <!-- po*mba (25) -->
  <g id="po*mba">
    <use href="#po" transform="translate(0,0)"/>
    <use href="#*mba" transform="translate(150,0)"/>
  </g>

  <!-- po*mbu (26) -->
  <g id="po*mbu">
    <use href="#po" transform="translate(0,0)"/>
    <use href="#*mbu" transform="translate(150,0)"/>
  </g>

  <!-- po*fo (27) -->
  <g id="po*fo">
    <use href="#po" transform="translate(0,0)"/>
    <use href="#*fo" transform="translate(150,0)"/>
  </g>

  <!-- po*fu (28) -->
  <g id="po*fu">
    <use href="#po" transform="translate(0,0)"/>
    <use href="#*fu" transform="translate(150,0)"/>
  </g>

  <!-- po*zho (29) -->
  <g id="po*zho">
    <use href="#po" transform="translate(0,0)"/>
    <use href="#*zho" transform="translate(150,0)"/>
  </g>

  <!-- po*kap (2A) -->
  <g id="po*kap">
    <use href="#po" transform="translate(0,0)"/>
    <use href="#*kap" transform="translate(150,0)"/>
  </g>

  <!-- po*sh (2B) -->
  <g id="po*sh">
    <use href="#po" transform="translate(0,0)"/>
    <use href="#*sh" transform="translate(150,0)"/>
  </g>

  <!-- ush* (30) -->
  <g id="ush*">
    <use href="#ush" transform="translate(0,0)"/>
    <use href="#*" transform="translate(150,0)"/>
  </g>

  <!-- ush*u (31) -->
  <g id="ush*u">
    <use href="#ush" transform="translate(0,0)"/>
    <use href="#*u" transform="translate(150,0)"/>
  </g>

  <!-- ush*po (32) -->
  <g id="ush*po">
    <use href="#ush" transform="translate(0,0)"/>
    <use href="#*po" transform="translate(150,0)"/>
  </g>

  <!-- ush*ush (33) -->
  <g id="ush*ush">
    <use href="#ush" transform="translate(0,0)"/>
    <use href="#*ush" transform="translate(150,0)"/>
  </g>

  <!-- ush*ak (34) -->
  <g id="ush*ak">
    <use href="#ush" transform="translate(0,0)"/>
    <use href="#*ak" transform="translate(150,0)"/>
  </g>

  <!-- ush*mba (35) -->
  <g id="ush*mba">
    <use href="#ush" transform="translate(0,0)"/>
    <use href="#*mba" transform="translate(150,0)"/>
  </g>

  <!-- ush*mbu (36) -->
  <g id="ush*mbu">
    <use href="#ush" transform="translate(0,0)"/>
    <use href="#*mbu" transform="translate(150,0)"/>
  </g>

  <!-- ush*fo (37) -->
  <g id="ush*fo">
    <use href="#ush" transform="translate(0,0)"/>
    <use href="#*fo" transform="translate(150,0)"/>
  </g>

  <!-- ush*fu (38) -->
  <g id="ush*fu">
    <use href="#ush" transform="translate(0,0)"/>
    <use href="#*fu" transform="translate(150,0)"/>
  </g>

  <!-- ush*zho (39) -->
  <g id="ush*zho">
    <use href="#ush" transform="translate(0,0)"/>
    <use href="#*zho" transform="translate(150,0)"/>
  </g>

  <!-- ush*kap (3A) -->
  <g id="ush*kap">
    <use href="#ush" transform="translate(0,0)"/>
    <use href="#*kap" transform="translate(150,0)"/>
  </g>

  <!-- ush*sh (3B) -->
  <g id="ush*sh">
    <use href="#ush" transform="translate(0,0)"/>
    <use href="#*sh" transform="translate(150,0)"/>
  </g>

  <!-- ak* (40) -->
  <g id="ak*">
    <use href="#ak" transform="translate(0,0)"/>
    <use href="#*" transform="translate(200,0)"/>
  </g>

  <!-- ak*u (41) -->
  <g id="ak*u">
    <use href="#ak" transform="translate(0,0)"/>
    <use href="#*u" transform="translate(200,0)"/>
  </g>

  <!-- ak*po (42) -->
  <g id="ak*po">
    <use href="#ak" transform="translate(0,0)"/>
    <use href="#*po" transform="translate(200,0)"/>
  </g>

  <!-- ak*ush (43) -->
  <g id="ak*ush">
    <use href="#ak" transform="translate(0,0)"/>
    <use href="#*ush" transform="translate(200,0)"/>
  </g>

  <!-- ak*ak (44) -->
  <g id="ak*ak">
    <use href="#ak" transform="translate(0,0)"/>
    <use href="#*ak" transform="translate(200,0)"/>
  </g>

  <!-- ak*mba (45) -->
  <g id="ak*mba">
    <use href="#ak" transform="translate(0,0)"/>
    <use href="#*mba" transform="translate(200,0)"/>
  </g>

  <!-- ak*mbu (46) -->
  <g id="ak*mbu">
    <use href="#ak" transform="translate(0,0)"/>
    <use href="#*mbu" transform="translate(200,0)"/>
  </g>

  <!-- ak*fo (47) -->
  <g id="ak*fo">
    <use href="#ak" transform="translate(0,0)"/>
    <use href="#*fo" transform="translate(200,0)"/>
  </g>

  <!-- ak*fu (48) -->
  <g id="ak*fu">
    <use href="#ak" transform="translate(0,0)"/>
    <use href="#*fu" transform="translate(200,0)"/>
  </g>

  <!-- ak*zho (49) -->
  <g id="ak*zho">
    <use href="#ak" transform="translate(0,0)"/>
    <use href="#*zho" transform="translate(200,0)"/>
  </g>

  <!-- ak*kap (4A) -->
  <g id="ak*kap">
    <use href="#ak" transform="translate(0,0)"/>
    <use href="#*kap" transform="translate(200,0)"/>
  </g>

  <!-- ak*sh (4B) -->
  <g id="ak*sh">
    <use href="#ak" transform="translate(0,0)"/>
    <use href="#*sh" transform="translate(200,0)"/>
  </g>

  <!-- mba* (50) -->
  <g id="mba*">
    <use href="#mba" transform="translate(0,0)"/>
    <use href="#*" transform="translate(200,0)"/>
  </g>
  
<!-- WORDS -->
  <!-- kofa -->
  <g id="kofa">
    <use href="#k" transform="translate(0,0)"/> 
    <use href="#o" transform="translate(25,0)"/>
    <use href="#f" transform="translate(100,0)"/> 
    <use href="#a" transform="translate(175,0)"/>  
  </g>

  <!-- tuf -->
  <g id="tuf">
    <use href="#t" transform="translate(0,0)"/> 
    <use href="#u" transform="translate(75,0)"/> 
    <use href="#f" transform="translate(75,75)"/> 
  </g>

  <!-- fazho -->
  <g id="fazho">
    <use href="#f" transform="translate(0,0)"/> 
    <use href="#a" transform="translate(75,0)"/> 
    <use href="#zh" transform="translate(150,0)"/> 
    <use href="#o" transform="translate(175,0)"/> 
  </g>

  <!-- fazhoughk -->
  <g id="fazhoughk">
    <use href="#f" transform="translate(0,0)"/> 
    <use href="#a" transform="translate(75,0)"/> 
    <use href="#zh" transform="translate(150,50)"/> 
    <use href="#ough" transform="translate(175,50)"/> 
    <use href="#k" transform="translate(200,0)"/> 
  </g>

  <!-- fash -->
  <g id="fash">
    <use href="#f" transform="translate(0,50)"/>
    <use href="#a" transform="translate(75,0)"/>
    <use href="#sh" transform="translate(150,50)"/>
  </g>
  <!-- apa -->
  <g id="apa">
    <use href="#a" transform="translate(0,0)"/>
    <use href="#p" transform="translate(75,0)"/>
    <use href="#a" transform="translate(150,0)"/>
  </g>
  <!-- mbupa -->
  <g id="mbupa">
    <use href="#mb" transform="translate(0,0)"/>
    <use href="#u" transform="translate(75,0)"/>
    <use href="#p" transform="translate(150,0)"/>
    <use href="#a" transform="translate(225,0)"/>
  </g>
  <!-- fotap -->
  <g id="fotap">
    <use href="#f" transform="translate(0,0)"/>
    <use href="#o" transform="translate(0,75)"/>
    <use href="#t" transform="translate(75,0)"/>
    <use href="#a" transform="translate(150,0)"/>
    <use href="#p" transform="translate(225,0)"/>
  </g>
  <!-- fotash -->
  <g id="fotash">
    <use href="#f" transform="translate(0,0)"/>
    <use href="#o" transform="translate(0,75)"/>
    <use href="#t" transform="translate(75,0)"/>
    <use href="#a" transform="translate(150,0)"/>
    <use href="#sh" transform="translate(225,50)"/>
  </g>
  <!-- akozh -->
  <g id="akozh">
    <use href="#a" transform="translate(0,0)"/>
    <use href="#k" transform="translate(75,0)"/>
    <use href="#o" transform="translate(100,0)"/>
    <use href="#zh" transform="translate(175,0)"/>
  </g>
  <!-- but -->
  <g id="but">
    <use href="#b" transform="translate(0,0)"/>
    <use href="#u" transform="translate(25,0)"/>
    <use href="#t" transform="translate(100,0)"/>
  </g>
  <!-- buzh -->
  <g id="buzh">
    <use href="#b" transform="translate(0,0)"/>
    <use href="#u" transform="translate(25,0)"/>
    <use href="#zh" transform="translate(100,0)"/>
  </g>
  <!-- fazhk -->
  <g id="fazhk">
    <use href="#f" transform="translate(0,0)"/>
    <use href="#a" transform="translate(75,0)"/>
    <use href="#zh" transform="translate(150,0)"/>
    <use href="#k" transform="translate(175,0)"/>
  </g>
  <!-- fazho -->
  <g id="fazho">
    <use href="#f" transform="translate(0,0)"/>
    <use href="#a" transform="translate(75,0)"/>
    <use href="#zh" transform="translate(150,0)"/>
    <use href="#o" transform="translate(175,0)"/>
  </g>
  <!-- nguho -->
  <g id="nguho">
    <use href="#ng" transform="translate(0,0)"/>
    <use href="#u" transform="translate(75,0)"/>
    <use href="#h" transform="translate(150,0)"/>
    <use href="#o" transform="translate(225,50)"/>
  </g>
  <!-- nguho* -->
  <g id="nguho*">
    <use href="#ng" transform="translate(0,0)"/>
    <use href="#u" transform="translate(75,0)"/>
    <use href="#h" transform="translate(150,0)"/>
    <use href="#o" transform="translate(225,0)"/>
    <use href="#*" transform="translate(300,0)"/>
  </g>
  <!-- oughktuk -->
  <g id="oughktuk">
    <use href="#ough" transform="translate(0,50)"/>
    <use href="#k" transform="translate(25,0)"/>
    <use href="#t" transform="translate(50,0)"/>
    <use href="#u" transform="translate(125,0)"/>
    <use href="#k" transform="translate(200,0)"/>
  </g>
  <!-- oughktuzha -->
  <g id="oughktuzha">
    <use href="#ough" transform="translate(0,50)"/>
    <use href="#k" transform="translate(25,0)"/>
    <use href="#t" transform="translate(50,0)"/>
    <use href="#u" transform="translate(125,0)"/>
    <use href="#zh" transform="translate(200,0)"/>
    <use href="#a" transform="translate(225,0)"/>
  </g>
  <!-- pung -->
  <g id="pung">
    <use href="#p" transform="translate(0,0)"/>
    <use href="#u" transform="translate(75,0)"/>
    <use href="#ng" transform="translate(150,0)"/>
  </g>
  <!-- tuf -->
  <g id="tuf">
    <use href="#t" transform="translate(0,0)"/>
    <use href="#u" transform="translate(75,50)"/>
    <use href="#f" transform="translate(150,50)"/>
  </g>
  <!-- tuzh -->
  <g id="tuzh">
    <use href="#t" transform="translate(0,0)"/>
    <use href="#u" transform="translate(75,50)"/>
    <use href="#zh" transform="translate(150,50)"/>
  </g>
  <!-- uk -->
  <g id="uk">
    <use href="#u" transform="translate(0,0)"/>
    <use href="#k" transform="translate(75,0)"/>
  </g>
  <!-- ukosh -->
  <g id="ukosh">
    <use href="#uk" transform="translate(0,0)"/>
    <use href="#osh" transform="translate(100,0)">
  </g>
  <!-- zhoughb -->
  <g id="zhoughb">
    <use href="#zh" transform="translate(0,0)"/>
    <use href="#ough" transform="translate(25,0)"/>
    <use href="#b" transform="translate(100,0)"/>
  </g>
  <!-- zhoughk -->
  <g id="zhoughk">
    <use href="#zh" transform="translate(0,0)"/>
    <use href="#ough" transform="translate(25,0)"/>
    <use href="#k" transform="translate(100,0)"/>
  </g>
  <!-- osh -->
  <g id="osh">
    <use href="#o" transform="translate(0,0)"/>
    <use href="#sh" transform="translate(75,0)"/>
  </g>
  <!-- fazhupa -->
  <g id="fazhupa">
    <use href="#fazh" transform="translate(0,0)"/>
    <use href="#u" transform="translate(175,0)"/>
    <use href="#p" transform="translate(250,0)"/>
    <use href="#a" transform="translate(325,0)"/>
  </g>
  <!-- fapopa -->
  <g id="fapopa">
    <use href="#f" transform="translate(0,0)"/>
    <use href="#a" transform="translate(75,0)"/>
    <use href="#po" transform="translate(150,0)"/>
    <use href="#p" transform="translate(250,0)"/>
    <use href="#a" transform="translate(325,0)"/>
  </g>
  <!-- fushapa -->
  <g id="fushapa">
    <use href="#f" transform="translate(0,0)"/>
    <use href="#u" transform="translate(0,75)"/>
    <use href="#sh" transform="translate(75,0)"/>
    <use href="#a" transform="translate(150,0)"/>
    <use href="#p" transform="translate(225,0)"/>
    <use href="#a" transform="translate(300,0)"/>
  </g>
  <!-- fazhaka -->
  <g id="fazhaka">
    <use href="#fazh" transform="translate(0,0)"/>
    <use href="#ak" transform="translate(75,0)"/>
    <use href="#a" transform="translate(175,0)"/>
  </g>
  <!-- fazhmbapa -->
  <g id="fazhmbapa">
    <use href="#fazh" transform="translate(0,0)"/>
    <use href="#mba" transform="translate(175,0)"/>
    <use href="#p" transform="translate(325,0)"/>
    <use href="#a" transform="translate(400,0)"/>
  </g>
  <!-- fazhmbupa -->
  <g id="fazhmbupa">
    <use href="#fazh" transform="translate(0,0)"/>
    <use href="#mbu" transform="translate(175,0)"/>
    <use href="#p" transform="translate(325,0)"/>
    <use href="#a" transform="translate(400,0)"/>
  </g>
  <!-- kazhf -->
  <g id="kazhf">
    <use href="#k" transform="translate(0,0)"/>
    <use href="#a" transform="translate(25,0)"/>
    <use href="#zh" transform="translate(100,50)"/>
    <use href="#f" transform="translate(125,50)"/>
  </g>
  <!-- ta -->
  <g id="ta">
    <use href="#t" transform="translate(0,0)"/>
    <use href="#a" transform="translate(75,0)"/>
  </g>
  <!-- ngu -->
  <g id="ngu">
    <use href="#ng" transform="translate(0,0)"/>
    <use href="#u" transform="translate(75,0)"/>
  </g>
  <!-- nguosh -->
  <g id="nguosh">
    <use href="#ngu" transform="translate(0,0)"/>
    <use href="#osh" transform="translate(75,75)"/>
  </g>
  <!-- nguuho* -->
  <g id="nguuho*">
    <use href="#ngu" transform="translate(0,0)"/>
    <use href="#u" transform="translate(75,0)"/>
    <use href="#h" transform="translate(150,0)"/>
    <use href="#o" transform="translate(225,0)"/>
    <use href="#*" transform="translate(300,0)"/>
  </g>
  <!-- ngufazh -->
  <g id="ngufazh">
    <use href="#ngu" transform="translate(0,0)"/>
    <use href="#fazh" transform="translate(150,0)"/>
  </g>
  <!-- posh -->
  <g id="posh">
    <use href="#po" transform="translate(0,0)"/>
    <use href="#sh" transform="translate(100,50)"/>
  </g>
  <!-- poshpo -->
  <g id="poshpo">
    <use href="#posh" transform="translate(0,0)"/>
    <use href="#po" transform="translate(175,0)"/>
  </g>
  <!-- oshpo -->
  <g id="oshpo">
    <use href="#osh" transform="translate(0,50)"/>
    <use href="#po" transform="translate(150,0)"/>
  </g>
  <!-- pozh -->
  <g id="pozh">
    <use href="#po" transform="translate(0,0)"/>
    <use href="#zh" transform="translate(100,50)"/>
  </g>
  <!-- ozh -->
  <g id="ozh">
    <use href="#o" transform="translate(0,0)"/>
    <use href="#zh" transform="translate(75,0)"/>
  </g>
  <!-- pozhpo -->
  <g id="pozhpo">
    <use href="#pozh" transform="translate(0,0)"/>
    <use href="#po" transform="translate(125,0)"/>
  </g>
  <!-- ozhpo -->
  <g id="ozhpo">
    <use href="#ozh" transform="translate(0,50)"/>
    <use href="#po" transform="translate(100,0)"/>
  </g>
  <!-- fazh -->
  <g id="fazh">
    <use href="#f" transform="translate(0,0)"/>
    <use href="#a" transform="translate(75,0)"/>
    <use href="#zh" transform="translate(150,0)"/>
  </g>
  <!-- oughp -->
  <g id="oughp">
    <use href="#ough" transform="translate(0,50)"/>
    <use href="#p" transform="translate(75,0)"/>
  </g>
  <!-- shougho -->
  <g id="shougho">
    <use href="#sh" transform="translate(0,0)"/>
    <use href="#ough" transform="translate(75,0)"/>
    <use href="#o" transform="translate(75,75)"/>
  </g>
  <!-- fough -->
  <g id="fough">
    <use href="#f" transform="translate(0,0)"/>
    <use href="#ough" transform="translate(75,0)"/>
  </g>
  <!-- atsha -->
  <g id="atsha">
    <use href="#a" transform="translate(0,0)"/>
    <use href="#t" transform="translate(25,0)"/>
    <use href="#sh" transform="translate(100,0)"/>
  </g>
  <!-- fazhku -->
  <g id="fazhku">
    <use href="#fazh" transform="translate(0,0)"/>
    <use href="#k" transform="translate(150,0)"/>
    <use href="#u" transform="translate(175,0)"/>
  </g>
  <!-- hapo -->
  <g id="hapo">
    <use href="#h" transform="translate(0,0)"/>
    <use href="#a" transform="translate(75,0)"/>
    <use href="#po" transform="translate(150,0)"/>
  </g>
  <!-- sha -->
  <g id="sha">
    <use href="#sh" transform="translate(0,0)"/>
    <use href="#a" transform="translate(75,0)"/>
  </g>
  <!-- fushka -->
  <g id="fushka">
    <use href="#f" transform="translate(0,50)"/>
    <use href="#ush" transform="translate(75,50)"/>
    <use href="#k" transform="translate(175,0)"/>
    <use href="#a" transform="translate(200,0)"/>
  </g>
  <!-- fushkaosh -->
  <g id="fushkaosh">
    <use href="#fushka" transform="translate(0,0)"/>
    <use href="#osh" transform="translate(275,50)"/>
  </g>
  <!-- aa -->
  <g id="aa">
    <use href="#a" transform="translate(0,0)"/>
    <use href="#a" transform="translate(0,75)"/>
  </g>
  <!-- sho -->
  <g id="sho">
    <use href="#sh" transform="translate(0,0)"/>
    <use href="#o" transform="translate(0,75)"/>
  </g>
  <!-- fashotopa -->
  <g id="fashotopa">
    <use href="#f" transform="translate(0,0)"/>
    <use href="#a" transform="translate(75,0)"/>
    <use href="#sh" transform="translate(150,0)"/>
    <use href="#o" transform="translate(150,75)"/>
    <use href="#t" transform="translate(175,0)"/>
    <use href="#o" transform="translate(250,0)"/>
    <use href="#p" transform="translate(325,0)"/>
    <use href="#a" transform="translate(400,0)"/>
  </g>
  <!-- akozhfotapa -->
  <g id="akozhfotapa">
    <use href="#akozh" transform="translate(0,0)"/>
    <use href="#fotapa" transform="translate(200,0)"/>
  </g>
  <!-- fotapa -->
  <g id="fotapa">
    <use href="#f" transform="translate(0,0)"/>
    <use href="#o" transform="translate(0,75)"/>
    <use href="#t" transform="translate(75,0)"/>
    <use href="#a" transform="translate(150,0)"/>
    <use href="#p" transform="translate(225,0)"/>
    <use href="#a" transform="translate(300,0)"/>
  </g>
  <!-- fashfotapa -->
  <g id="fashfotapa">
    <use href="#fash" transform="translate(0,0)"/>
    <use href="#fotapa" transform="translate(225,0)"/>
  </g>
  <!-- apaa -->
  <g id="apaa">
    <use href="#apa" transform="translate(0,0)"/>
    <use href="#a" transform="translate(225,0)"/>
  </g>
  <!-- apao -->
  <g id="apao">
    <use href="#apa" transform="translate(0,0)"/>
    <use href="#o" transform="translate(225,0)"/>
  </g>
  <!-- apaoa -->
  <g id="apaoa">
    <use href="#apao" transform="translate(0,0)"/>
    <use href="#a" transform="translate(300,0)"/>
  </g>
  <!-- Shoughhoo -->
  <g id="shoughhoo">
    <use href="#shougho" transform="translate(0,0)"/>
    <use href="#o" transform="translate(150,0)"/>
  </g>
  <!-- Ukozhku -->
  <g id="ukozhku">
    <use href="#uk" transform="translate(25,575)"/>
    <use href="#ozh" transform="translate(125,575)"/>
    <use href="#k" transform="translate(225,575)"/>
    <use href="#u" transform="translate(250,575)"/>
  </g>
  <!-- Tap -->
  <g id="tap">
    <use href="#ta" transform="translate(0,0)"/>
    <use href="#p" transform="translate(150,0)"/>
  </g>
  <!-- Fa -->
  <g id="fa">
    <use href="#f" transform="translate(0,0)"/>
    <use href="#a" transform="translate(75,0)"/>
  </g>
  <!-- Fa -->
  <g id="fazhofa">
    <use href="#fazho" transform="translate(0,0)"/>
    <use href="#f" transform="translate(175,75)"/>
    <use href="#a" transform="translate(250,0)"/>
  </g>
  <!-- akozho* -->
  <g id="akozho*">
    <use href="#akozh" transform="translate(0,0)"/>
    <use href="#o" transform="translate(200,0)"/>
    <use href="#*" transform="translate(275,0)"/>
  </g>
  <!-- papsho -->
  <g id="papsho">
    <use href="#p" transform="translate(0,0)"/>
    <use href="#a" transform="translate(75,0)"/>
    <use href="#p" transform="translate(150,0)"/>
    <use href="#sho" transform="translate(225,0)"/>
  </g>
  <!-- papshongu -->
  <g id="papshongu">
    <use href="#papsho" transform="translate(0,0)"/>
    <use href="#ngu" transform="translate(300,0)"/>
  </g>
  <!-- At -->
  <g id="at">
    <use href="#a" transform="translate(0,0)"/>
    <use href="#t" transform="translate(25,0)"/>
  </g>
  <!-- Shoughpangu -->
  <g id="shoughpangu">
    <use href="#sh" transform="translate(0,0)"/>
    <use href="#ough" transform="translate(75,0)"/>
    <use href="#p" transform="translate(150,0)"/>
    <use href="#a" transform="translate(225,0)"/>
    <use href="#ngu" transform="translate(300,0)"/>
  </g>
  <!-- Shako -->
  <g id="shako">
    <use href="#sh" transform="translate(0,0)"/>
    <use href="#a" transform="translate(75,0)"/>
    <use href="#k" transform="translate(150,0)"/>
    <use href="#o" transform="translate(175,0)"/>
  </g>
  <!-- Op -->
  <g id="op">
    <use href="#o" transform="translate(0,0)"/>
    <use href="#p" transform="translate(75,0)"/>
  </g>
  <!-- Oop -->
  <g id="oop">
    <use href="#o" transform="translate(0,75)"/>
    <use href="#op" transform="translate(0,0)"/>
  </g>
  <!-- Ushko -->
  <g id="ushko">
    <use href="#ush" transform="translate(0,0)"/>
    <use href="#k" transform="translate(150,0)"/>
    <use href="#o" transform="translate(175,0)"/>
  </g>
  <!-- Shap -->
  <g id="shap">
    <use href="#sh" transform="translate(0,50)"/>
    <use href="#a" transform="translate(25,0)"/>
    <use href="#p" transform="translate(100,0)"/>
  </g>
  <!-- Fashofash -->
  <g id="fashofash">
    <use href="#fash" transform="translate(0,0)"/>
    <use href="#o" transform="translate(225,-25)"/>
    <use href="#fash" transform="translate(225,0)"/>
  </g>
  <!-- Shoughnguo -->
  <g id="shoughnguo">
    <use href="#sh" transform="translate(0,0)"/>
    <use href="#ough" transform="translate(75,0)"/>
    <use href="#ngu" transform="translate(150,0)"/>
    <use href="#o" transform="translate(225,75)"/>
  </g>
  <!-- Ooughktuzha -->
  <g id="ooughktuzha">
    <use href="#o" transform="translate(0,-75)"/>
    <use href="#oughktuzha" transform="translate(0,0)"/>
  </g>
  <!-- Akozhapo -->
  <g id="akozhapo">
    <use href="#akozh" transform="translate(0,0)"/>
    <use href="#a" transform="translate(200,0)"/>
    <use href="#po" transform="translate(275,0)"/>
  </g>
  <!-- Opa -->
  <g id="opa">
    <use href="#o" transform="translate(0,0)"/>
    <use href="#p" transform="translate(75,0)"/>
    <use href="#a" transform="translate(150,0)"/>
  </g>
  <!-- Fozho -->
  <g id="fozho">
    <use href="#f" transform="translate(0,0)"/>
    <use href="#o" transform="translate(0,75)"/>
    <use href="#zh" transform="translate(75,0)"/>
    <use href="#o" transform="translate(100,0)"/>
  </g>
  <!-- Oughfatoughk -->
  <g id="oughfatoughk">
    <use href="#ough" transform="translate(0,0)"/>
    <use href="#at" transform="translate(75,0)"/>
    <use href="#ough" transform="translate(175,50)"/>
    <use href="#k" transform="translate(200,0)"/>
  </g>
  <!-- Fazhoosh -->
  <g id="fazhoosh">
    <use href="#fazho" transform="translate(0,0)"/>
    <use href="#osh" transform="translate(175,75)"/>
  </g>
  <!-- Taa -->
  <g id="taa">
    <use href="#ta" transform="translate(0,0)"/>
    <use href="#a" transform="translate(150,0)"/>
  </g>
  <!-- Papshofo -->
  <g id="papshofo">
    <use href="#papsho" transform="translate(0,0)"/>
    <use href="#f" transform="translate(300,0)"/>
    <use href="#o" transform="translate(300,75)"/>
  </g>
  <!-- Ukopapshofo -->
  <g id="ukopapshofo">
    <use href="#uk" transform="translate(0,0)"/>
    <use href="#o" transform="translate(100,0)"/>
    <use href="#papshofo" transform="translate(175,0)"/>
  </g>
  <!-- Papshofo* -->
  <g id="papshofo*">
    <use href="#papsho" transform="translate(0,0)"/>
    <use href="#fo" transform="translate(300,0)"/>
    <use href="#*" transform="translate(450,0)"/>
  </g>
  <!-- Fazhapshofo -->
  <g id="fazhapshofo">
    <use href="#fazh" transform="translate(0,0)"/>
    <use href="#a" transform="translate(175,0)"/>
    <use href="#p" transform="translate(250,0)"/>
    <use href="#sh" transform="translate(325,0)"/>
    <use href="#ofo" transform="translate(400,0)"/>
  </g>
  <!-- Ofo -->
  <g id="ofo">
    <use href="#o" transform="translate(0,0)"/>
    <use href="#f" transform="translate(0,75)"/>
    <use href="#o" transform="translate(75,0)"/>
  </g>
  <!-- Foughkapshofo -->
  <g id="foughkapshofo">
    <use href="#fough" transform="translate(0,0)"/>
    <use href="#kap" transform="translate(150,0)"/>
    <use href="#sh" transform="translate(325,0)"/>
    <use href="#ofo" transform="translate(400,0)"/>
  </g>
  <!-- Fazhofo -->
  <g id="fazhofo">
    <use href="#fazh" transform="translate(0,0)"/>
    <use href="#ofo" transform="translate(175,0)"/>
  </g>
  <!-- Fazhoughpshongu -->
  <g id="fazhoughpshongu">
    <use href="#fazh" transform="translate(0,0)"/>
    <use href="#ough" transform="translate(175,0)"/>
    <use href="#p" transform="translate(250,0)"/>
    <use href="#sho" transform="translate(325,0)"/>
    <use href="#ngu" transform="translate(400,0)"/>
  </g>
  <!-- Ushkofash -->
  <g id="ushkofash">
    <use href="#ushko" transform="translate(0,0)"/>
    <use href="#f" transform="translate(250,0)"/>
    <use href="#a" transform="translate(325,0)"/>
    <use href="#sh" transform="translate(400,0)"/>
  </g>
  <!-- Fashofazho -->
  <g id="fashofazho">
    <use href="#fa" transform="translate(0,0)"/>
    <use href="#sh" transform="translate(150,0)"/>
    <use href="#o" transform="translate(225,0)"/>
    <use href="#f" transform="translate(225,75)"/>
    <use href="#a" transform="translate(300,0)"/>
    <use href="#zho" transform="translate(375,0)"/>
  </g>
  <!-- Koughk -->
  <g id="koughk">
    <use href="#k" transform="translate(0,0)"/>
    <use href="#ough" transform="translate(25,0)"/>
    <use href="#k" transform="translate(100,0)"/>
  </g>
  <!-- Papfasho -->
  <g id="papfasho">
    <use href="#p" transform="translate(0,0)"/>
    <use href="#a" transform="translate(75,0)"/>
    <use href="#p" transform="translate(150,0)"/>
    <use href="#f" transform="translate(175,50)"/>
    <use href="#a" transform="translate(250,0)"/>
    <use href="#sh" transform="translate(325,0)"/>
    <use href="#o" transform="translate(325,75)"/>
  </g>
  <!-- Opapfasho -->
  <g id="opapfasho">
    <use href="#o" transform="translate(0,-75)"/>
    <use href="#papfasho" transform="translate(0,0)"/>
  </g>
  <!-- Katoughposho -->
  <g id="katoughposho">
    <use href="#k" transform="translate(0,0)"/>
    <use href="#at" transform="translate(25,0)"/>
    <use href="#ough" transform="translate(125,0)"/>
    <use href="#posh" transform="translate(200,0)"/>
    <use href="#o" transform="translate(375,50)"/>
  </g>
  <!-- Shtu -->
  <g id="shtu">
    <use href="#sh" transform="translate(0,0)"/>
    <use href="#t" transform="translate(25,0)"/>
    <use href="#u" transform="translate(100,0)"/>
  </g>
  <!-- Ufushka -->
  <g id="ufushka">
    <use href="#u" transform="translate(0,-75)"/>
    <use href="#f" transform="translate(0,0)"/>
    <use href="#ush" transform="translate(0,75)"/>
    <use href="#k" transform="translate(100,25)"/>
    <use href="#a" transform="translate(125,25)"/>
  </g>
  <!-- Apau -->
  <g id="apau">
    <use href="#apa" transform="translate(0,0)"/>
    <use href="#u" transform="translate(225,0)"/>
  </g>
</defs>

<!-- ===== RENDERING ===== -->
<g stroke="black" stroke-width="10" stroke-linecap="square" fill="none">
  <!-- Copy this use tag for as many glyphs as you want. 
       Change the id to the romanized version of the glyph you want,
       or if you're using a word/number, change the id to that. --> 
  <use href="#apau" transform="translate(25,575)"/>
  
</g>
</svg>
