
<svg xmlns="http://www.w3.org/2000/svg"
   width="2000" height="950"
   viewBox="0 0 1000 900">

<!-- ===== GLYPH DEFINITIONS (LOCAL COORDS ONLY) ===== -->
<defs>
<!-- LETTERS -->
  <!-- P -->
  <g id="p">
    <line x1="0" y1="0" x2="0" y2="100"/>
    <line x1="0" y1="0" x2="50" y2="0"/>
  </g>

  <!-- B -->
  <g id="b">
    <line x1="0" y1="0" x2="0" y2="100"/>
    <line x1="0" y1="100" x2="50" y2="100"/>
  </g>

  <!-- T -->
  <g id="t">
    <line x1="50" y1="0" x2="50" y2="100"/>
    <line x1="0" y1="0" x2="50" y2="0"/>
  </g>

  <!-- K -->
  <g id="k">
    <line x1="0" y1="0" x2="0" y2="50"/>
    <line x1="0" y1="50" x2="50" y2="100"/>
  </g>

  <!-- F -->
  <g id="f">
    <line x1="0" y1="0" x2="0" y2="50"/>
    <line x1="0" y1="0" x2="50" y2="0"/>
  </g>

  <!-- Sh -->
  <g id="sh">
    <line x1="0" y1="0" x2="0" y2="50"/>
    <line x1="0" y1="0" x2="50" y2="50"/>
  </g>

  <!-- Zh -->
  <g id="zh">
    <line x1="0" y1="0" x2="0" y2="50"/>
  </g>

  <!-- H -->
  <g id="h">
    <line x1="0" y1="0" x2="0" y2="50"/>
    <line x1="0" y1="50" x2="50" y2="50"/>
    <line x1="50" y1="50" x2="50" y2="100"/>
  </g>

  <!-- U -->
  <g id="u">
    <line x1="0" y1="0" x2="0" y2="50"/>
    <line x1="0" y1="50" x2="50" y2="50"/>
    <line x1="0" y1="0" x2="50" y2="0"/>
    <line x1="50" y1="0" x2="50" y2="50"/>
  </g>

  <!-- O -->
  <g id="o">
    <line x1="0" y1="0" x2="0" y2="50"/>
    <line x1="0" y1="50" x2="50" y2="50"/>
    <line x1="0" y1="0" x2="50" y2="0"/>
  </g>

  <!-- Ough -->
  <g id="ough">
    <line x1="0" y1="0" x2="0" y2="50"/>
    <line x1="0" y1="50" x2="50" y2="50"/>
    <line x1="0" y1="0" x2="50" y2="50"/>
  </g>

  <!-- a -->
  <g id="a">
    <line x1="0" y1="0" x2="0" y2="50"/>
    <line x1="0" y1="0" x2="50" y2="50"/>
    <line x1="0" y1="50" x2="50" y2="100"/>
  </g>

  <!-- * -->
  <g id="*">
    <line x1="0" y1="0" x2="0" y2="50"/>
    <line x1="0" y1="0" x2="50" y2="50"/>
    <line x1="0" y1="50" x2="-50" y2="100"/>
  </g>

  <!-- Mb -->
  <g id="mb">
    <line x1="0" y1="0" x2="0" y2="50"/>
    <line x1="0" y1="50" x2="50" y2="50"/>
    <line x1="0" y1="50" x2="50" y2="100"/>
  </g>

  <!-- Ng -->
  <g id="ng">
    <line x1="0" y1="0" x2="0" y2="50"/>
    <line x1="0" y1="50" x2="50" y2="0"/>
    <line x1="0" y1="50" x2="50" y2="100"/>
  </g>
<!-- PUNCTUATION -->
  <!-- period -->
  <g id="period">
    <line x1="0" y1="0" x2="0" y2="50"/>
    <line x1="0" y1="50" x2="50" y2="100"/>
    <line x1="0" y1="50" x2="-50" y2="100"/>
  </g>

<!-- NUMBERS -->
  <!-- shazho (10^9) -->
  <g id="shazho">
    <use href="#sh" transform="translate(50,0) scale(-1,1)"/>
    <use href="#a" transform="translate(75,0)"/>
    <use href="#zh" transform="translate(150,50)"/>
    <use href="#o" transform="translate(175,50)"/>
  </g>

  <!-- ngpangshop (10^8) -->
  <g id="ngpangshop">
    <use href="#ng" transform="translate(50,0) scale(-1,1)"/>
    <use href="#p" transform="translate(75,0)"/>
    <use href="#a" transform="translate(150,0)"/>
    <use href="#ng" transform="translate(225,0)"/>
    <use href="#sh" transform="translate(300,0) scale(-1,1)"/>
    <use href="#o" transform="translate(325,0)"/>
    <use href="#p" transform="translate(400,0)"/>
  </g>

  <!-- pazhngahop (10^7) -->
  <g id="pazhngahop">
    <use href="#p" transform="translate(50,0), scale(-1,1)"/>
    <use href="#a" transform="translate(75,0)"/>
    <use href="#zh" transform="translate(150,0)"/>
    <use href="#ng" transform="translate(175,0)"/>
    <use href="#a" transform="translate(250,0)"/>
    <use href="#h" transform="translate(325,0)"/>
    <use href="#o" transform="translate(400,50)"/>
    <use href="#p" transform="translate(475,0)"/>
  </g>

  <!-- mbokngshop (10^6) -->
  <g id="mbokngshop">
    <use href="#mb" transform="translate(50,0) scale(-1,1)"/>
    <use href="#o" transform="translate(75,0)"/>
    <use href="#k" transform="translate(150,0)"/>
    <use href="#ng" transform="translate(175,0)"/>
    <use href="#sh" transform="translate(250,0) scale(-1,1)"/>
    <use href="#o" transform="translate(275,0)"/>
    <use href="#p" transform="translate(350,0)"/>
  </g>

  <!-- ngshop (10^5) -->
  <g id="ngshop">
    <use href="#ng" transform="translate(0,0)"/>
    <use href="#sh" transform="translate(75,0) scale(-1,1)"/>
    <use href="#o" transform="translate(100,0)"/>
    <use href="#p" transform="translate(175,0)"/>
  </g>

  <!-- ngpa (10^4) -->
  <g id="ngpa">
    <use href="#ng" transform="translate(50,0) scale(-1,1)"/>
    <use href="#p" transform="translate(75,0)"/>
    <use href="#a" transform="translate(150,0)"/>
  </g>

  <!-- pazh (10^3) -->
  <g id="pazh">
    <use href="#p" transform="translate(50,0) scale(-1,1)"/>
    <use href="#a" transform="translate(75,0)"/>
    <use href="#zh" transform="translate(150,50)"/>
  </g>

  <!-- mbok (10^2) -->
  <g id="mbok">
    <use href="#mb" transform="translate(50,0) scale(-1,1)"/>
    <use href="#o" transform="translate(75,0)"/>
    <use href="#k" transform="translate(150,0)"/>
  </g>


  <!-- o (0), already exists -->

  <!-- u (1), already exists -->

  <!-- po (2) -->
  <g id="po">
    <use href="#p" transform="translate(0,0)"/>
    <use href="#o" transform="translate(25,50)"/>
  </g>

  <!-- ush (3) -->
  <g id="ush">
    <use href="#u" transform="translate(0,0)"/>
    <use href="#sh" transform="translate(75,0)"/>
  </g>

  <!-- ak (4) -->
  <g id="ak">
    <use href="#a" transform="translate(0,0)"/>
    <use href="#k" transform="translate(75,0)"/>
  </g>

  <!-- mba (5) -->
  <g id="mba">
    <use href="#mb" transform="translate(0,0)"/>
    <use href="#a" transform="translate(75,0)"/>
  </g>

  <!-- mbu (6) -->
  <g id="mbu">
    <use href="#mb" transform="translate(0,0)"/>
    <use href="#u" transform="translate(75,50)"/>
  </g>

  <!-- fo (7) -->
  <g id="fo">
    <use href="#f" transform="translate(0,0)"/>
    <use href="#o" transform="translate(75,0)"/>
  </g>

  <!-- fu (8) -->
  <g id="fu">
    <use href="#f" transform="translate(0,0)"/>
    <use href="#u" transform="translate(75,0)"/>
  </g>

  <!-- zho (9) -->
  <g id="zho">
    <use href="#zh" transform="translate(0,0)"/>
    <use href="#o" transform="translate(25,0)"/>
  </g>

  <!-- kap (A) -->
  <g id="kap">
    <use href="#k" transform="translate(0,0)"/>
    <use href="#a" transform="translate(25,0)"/>
    <use href="#p" transform="translate(100,0)">
  </g>

  <!-- sh (B) -->
  <g id="sh">
    <use href="#sh" transform="translate(0,0)"/>
  </g>

  <!-- * (10), already exists -->

  <!-- *u (11) -->
  <g id="*u">
    <use href="#*" transform="translate(0,0)"/>
    <use href="#u" transform="translate(0,75)"/>
  </g>

  <!-- *po (12) -->
  <g id="*po">
    <use href="#*" transform="translate(0,0)"/>
    <use href="#po" transform="translate(0,75)"/>
  </g>

  <!-- *ush (13) -->
  <g id="*ush">
    <use href="#*" transform="translate(0,0)"/>
    <use href="#ush" transform="translate(0,75)"/>
  </g>

  <!-- *ak (14) -->
  <g id="*ak">
    <use href="#*" transform="translate(0,0)"/>
    <use href="#ak" transform="translate(0,75)"/>
  </g>

  <!-- *mba (15) -->
  <g id="*mba">
    <use href="#*" transform="translate(0,0)"/>
    <use href="#mba" transform="translate(0,75)"/>
  </g>

  <!-- *mbu (16) -->
  <g id="*mbu">
    <use href="#*" transform="translate(0,0)"/>
    <use href="#mbu" transform="translate(0,75)"/>
  </g>

  <!-- *fo (17) -->
  <g id="*fo">
    <use href="#*" transform="translate(0,0)"/>
    <use href="#fo" transform="translate(0,75)"/>
  </g>

  <!-- *fu (18) -->
  <g id="*fu">
    <use href="#*" transform="translate(0,0)"/>
    <use href="#fu" transform="translate(0,75)"/>
  </g>

  <!-- *zho (19) -->
  <g id="*zho">
    <use href="#*" transform="translate(0,0)"/>
    <use href="#zho" transform="translate(0,75)"/>
  </g>

  <!-- *kap (1A) -->
  <g id="*kap">
    <use href="#*" transform="translate(0,0)"/>
    <use href="#kap" transform="translate(0,75)"/>
  </g>

  <!-- *sh (1B) -->
  <g id="*sh">
    <use href="#*" transform="translate(0,0)"/>
    <use href="#sh" transform="translate(0,75)"/>
  </g>

  <!-- po* (20) -->
  <g id="po*">
    <use href="#po" transform="translate(0,0)"/>
    <use href="#*" transform="translate(150,0)"/>
  </g>

  <!-- po*u (21) -->
  <g id="po*u">
    <use href="#po" transform="translate(0,0)"/>
    <use href="#*u" transform="translate(150,0)"/>
  </g>

  <!-- po*po (22) -->
  <g id="po*po">
    <use href="#po" transform="translate(0,0)"/>
    <use href="#*po" transform="translate(150,0)"/>
  </g>

  <!-- po*ush (23) -->
  <g id="po*ush">
    <use href="#po" transform="translate(0,0)"/>
    <use href="#*ush" transform="translate(150,0)"/>
  </g>

  <!-- po*ak (24) -->
  <g id="po*ak">
    <use href="#po" transform="translate(0,0)"/>
    <use href="#*ak" transform="translate(150,0)"/>
  </g>

  <!-- po*mba (25) -->
  <g id="po*mba">
    <use href="#po" transform="translate(0,0)"/>
    <use href="#*mba" transform="translate(150,0)"/>
  </g>

  <!-- po*mbu (26) -->
  <g id="po*mbu">
    <use href="#po" transform="translate(0,0)"/>
    <use href="#*mbu" transform="translate(150,0)"/>
  </g>

  <!-- po*fo (27) -->
  <g id="po*fo">
    <use href="#po" transform="translate(0,0)"/>
    <use href="#*fo" transform="translate(150,0)"/>
  </g>

  <!-- po*fu (28) -->
  <g id="po*fu">
    <use href="#po" transform="translate(0,0)"/>
    <use href="#*fu" transform="translate(150,0)"/>
  </g>

  <!-- po*zho (29) -->
  <g id="po*zho">
    <use href="#po" transform="translate(0,0)"/>
    <use href="#*zho" transform="translate(150,0)"/>
  </g>

  <!-- po*kap (2A) -->
  <g id="po*kap">
    <use href="#po" transform="translate(0,0)"/>
    <use href="#*kap" transform="translate(150,0)"/>
  </g>

  <!-- po*sh (2B) -->
  <g id="po*sh">
    <use href="#po" transform="translate(0,0)"/>
    <use href="#*sh" transform="translate(150,0)"/>
  </g>

  <!-- ush* (30) -->
  <g id="ush*">
    <use href="#ush" transform="translate(0,0)"/>
    <use href="#*" transform="translate(150,0)"/>
  </g>

  <!-- ush*u (31) -->
  <g id="ush*u">
    <use href="#ush" transform="translate(0,0)"/>
    <use href="#*u" transform="translate(150,0)"/>
  </g>

  <!-- ush*po (32) -->
  <g id="ush*po">
    <use href="#ush" transform="translate(0,0)"/>
    <use href="#*po" transform="translate(150,0)"/>
  </g>

  <!-- ush*ush (33) -->
  <g id="ush*ush">
    <use href="#ush" transform="translate(0,0)"/>
    <use href="#*ush" transform="translate(150,0)"/>
  </g>

  <!-- ush*ak (34) -->
  <g id="ush*ak">
    <use href="#ush" transform="translate(0,0)"/>
    <use href="#*ak" transform="translate(150,0)"/>
  </g>

  <!-- ush*mba (35) -->
  <g id="ush*mba">
    <use href="#ush" transform="translate(0,0)"/>
    <use href="#*mba" transform="translate(150,0)"/>
  </g>

  <!-- ush*mbu (36) -->
  <g id="ush*mbu">
    <use href="#ush" transform="translate(0,0)"/>
    <use href="#*mbu" transform="translate(150,0)"/>
  </g>

  <!-- ush*fo (37) -->
  <g id="ush*fo">
    <use href="#ush" transform="translate(0,0)"/>
    <use href="#*fo" transform="translate(150,0)"/>
  </g>

  <!-- ush*fu (38) -->
  <g id="ush*fu">
    <use href="#ush" transform="translate(0,0)"/>
    <use href="#*fu" transform="translate(150,0)"/>
  </g>

  <!-- ush*zho (39) -->
  <g id="ush*zho">
    <use href="#ush" transform="translate(0,0)"/>
    <use href="#*zho" transform="translate(150,0)"/>
  </g>

  <!-- ush*kap (3A) -->
  <g id="ush*kap">
    <use href="#ush" transform="translate(0,0)"/>
    <use href="#*kap" transform="translate(150,0)"/>
  </g>

  <!-- ush*sh (3B) -->
  <g id="ush*sh">
    <use href="#ush" transform="translate(0,0)"/>
    <use href="#*sh" transform="translate(150,0)"/>
  </g>

  <!-- ak* (40) -->
  <g id="ak*">
    <use href="#ak" transform="translate(0,0)"/>
    <use href="#*" transform="translate(200,0)"/>
  </g>

  <!-- ak*u (41) -->
  <g id="ak*u">
    <use href="#ak" transform="translate(0,0)"/>
    <use href="#*u" transform="translate(200,0)"/>
  </g>

  <!-- ak*po (42) -->
  <g id="ak*po">
    <use href="#ak" transform="translate(0,0)"/>
    <use href="#*po" transform="translate(200,0)"/>
  </g>

  <!-- ak*ush (43) -->
  <g id="ak*ush">
    <use href="#ak" transform="translate(0,0)"/>
    <use href="#*ush" transform="translate(200,0)"/>
  </g>

  <!-- ak*ak (44) -->
  <g id="ak*ak">
    <use href="#ak" transform="translate(0,0)"/>
    <use href="#*ak" transform="translate(200,0)"/>
  </g>

  <!-- ak*mba (45) -->
  <g id="ak*mba">
    <use href="#ak" transform="translate(0,0)"/>
    <use href="#*mba" transform="translate(200,0)"/>
  </g>

  <!-- ak*mbu (46) -->
  <g id="ak*mbu">
    <use href="#ak" transform="translate(0,0)"/>
    <use href="#*mbu" transform="translate(200,0)"/>
  </g>

  <!-- ak*fo (47) -->
  <g id="ak*fo">
    <use href="#ak" transform="translate(0,0)"/>
    <use href="#*fo" transform="translate(200,0)"/>
  </g>

  <!-- ak*fu (48) -->
  <g id="ak*fu">
    <use href="#ak" transform="translate(0,0)"/>
    <use href="#*fu" transform="translate(200,0)"/>
  </g>

  <!-- ak*zho (49) -->
  <g id="ak*zho">
    <use href="#ak" transform="translate(0,0)"/>
    <use href="#*zho" transform="translate(200,0)"/>
  </g>

  <!-- ak*kap (4A) -->
  <g id="ak*kap">
    <use href="#ak" transform="translate(0,0)"/>
    <use href="#*kap" transform="translate(200,0)"/>
  </g>

  <!-- ak*sh (4B) -->
  <g id="ak*sh">
    <use href="#ak" transform="translate(0,0)"/>
    <use href="#*sh" transform="translate(200,0)"/>
  </g>

  <!-- mba* (50) -->
  <g id="mba*">
    <use href="#mba" transform="translate(0,0)"/>
    <use href="#*" transform="translate(200,0)"/>
  </g>
  
<!-- WORDS -->
  <!-- kofa -->
  <g id="kofa">
    <use href="#k" transform="translate(0,0)"/> 
    <use href="#o" transform="translate(25,0)"/>
    <use href="#f" transform="translate(100,0)"/> 
    <use href="#a" transform="translate(175,0)"/>  
  </g>

  <!-- tuf -->
  <g id="tuf">
    <use href="#t" transform="translate(0,0)"/> 
    <use href="#u" transform="translate(75,0)"/> 
    <use href="#f" transform="translate(75,75)"/> 
  </g>

  <!-- fazho -->
  <g id="fazho">
    <use href="#f" transform="translate(0,0)"/> 
    <use href="#a" transform="translate(75,0)"/> 
    <use href="#zh" transform="translate(150,0)"/> 
    <use href="#o" transform="translate(175,0)"/> 
  </g>

  <!-- fazhoughk -->
  <g id="fazhoughk">
    <use href="#f" transform="translate(0,0)"/> 
    <use href="#a" transform="translate(75,0)"/> 
    <use href="#zh" transform="translate(150,50)"/> 
    <use href="#ough" transform="translate(175,50)"/> 
    <use href="#k" transform="translate(200,0)"/> 
  </g>

  <!-- fash -->
  <g id="fash">
    <use href="#f" transform="translate(0,50)"/>
    <use href="#a" transform="translate(75,0)"/>
    <use href="#sh" transform="translate(150,50)"/>
  </g>
  <!-- apa -->
  <g id="apa">
    <use href="#a" transform="translate(0,0)"/>
    <use href="#p" transform="translate(75,0)"/>
    <use href="#a" transform="translate(150,0)"/>
  </g>
  <!-- mbupa -->
  <g id="mbupa">
    <use href="#mb" transform="translate(0,0)"/>
    <use href="#u" transform="translate(75,0)"/>
    <use href="#p" transform="translate(150,0)"/>
    <use href="#a" transform="translate(225,0)"/>
  </g>
  <!-- fotap -->
  <g id="fotap">
    <use href="#f" transform="translate(0,0)"/>
    <use href="#o" transform="translate(0,75)"/>
    <use href="#t" transform="translate(75,0)"/>
    <use href="#a" transform="translate(150,0)"/>
    <use href="#p" transform="translate(225,0)"/>
  </g>
  <!-- fotash -->
  <g id="fotash">
    <use href="#f" transform="translate(0,0)"/>
    <use href="#o" transform="translate(0,75)"/>
    <use href="#t" transform="translate(75,0)"/>
    <use href="#a" transform="translate(150,0)"/>
    <use href="#sh" transform="translate(225,50)"/>
  </g>
  <!-- akozh -->
  <g id="akozh">
    <use href="#a" transform="translate(0,0)"/>
    <use href="#k" transform="translate(75,0)"/>
    <use href="#o" transform="translate(100,0)"/>
    <use href="#zh" transform="translate(175,0)"/>
  </g>
  <!-- but -->
  <g id="but">
    <use href="#b" transform="translate(0,0)"/>
    <use href="#u" transform="translate(25,0)"/>
    <use href="#t" transform="translate(100,0)"/>
  </g>
  <!-- buzh -->
  <g id="buzh">
    <use href="#b" transform="translate(0,0)"/>
    <use href="#u" transform="translate(25,0)"/>
    <use href="#zh" transform="translate(100,0)"/>
  </g>
  <!-- fazhk -->
  <g id="temp">
    <use href="#f" transform="translate(0,0)"/>
    <use href="#a" transform="translate(75,0)"/>
    <use href="#zh" transform="translate(150,0)"/>
    <use href="#k" transform="translate(175,0)"/>
  </g>
  <!-- fazho -->
  <g id="temp">
    <use href="#f" transform="translate(0,0)"/>
  </g>
  <!-- nguho -->
  <g id="temp">
    <use href="#f" transform="translate(0,0)"/>
  </g>
  <!-- nguho* -->
  <g id="temp">
    <use href="#f" transform="translate(0,0)"/>
  </g>
  <!-- oughktuk -->
  <g id="temp">
    <use href="#f" transform="translate(0,0)"/>
  </g>
  <!-- oughktuza -->
  <g id="temp">
    <use href="#f" transform="translate(0,0)"/>
  </g>
  <!-- pung -->
  <g id="temp">
    <use href="#f" transform="translate(0,0)"/>
  </g>
  <!-- tuf -->
  <g id="temp">
    <use href="#f" transform="translate(0,0)"/>
  </g>
  <!-- tuz -->
  <g id="temp">
    <use href="#f" transform="translate(0,0)"/>
  </g>
  <!-- uk -->
  <g id="temp">
    <use href="#f" transform="translate(0,0)"/>
  </g>
  <!-- ukosh -->
  <!-- zhoughb -->
  <!-- zhoughk -->
  <!-- osh -->
  <!-- fazhupa -->
  <!-- fapopa -->
  <!-- fushapa -->
  <!-- fazhaka -->
  <!-- fazhmbapa -->
  <!-- fazhmbupa -->
  <!-- kazhf -->
  <!-- ta -->
  <!-- ngu -->
  <!-- nguosh -->
  <!-- onguho* -->
  <!-- posh -->
  <!-- poshpo -->
  <!-- oshpo -->
  <!-- pozh -->
  <!-- ozh -->
  <!-- pozhpo -->
  <!-- ozhpo -->
  <!-- fazh -->
  <!-- oughp -->
  <!-- shougho -->
  <!-- fough -->
  <!-- awtshaw -->
  <!-- fazhku -->
<!-- PHRASES -->
  <!-- fazhoofazhoughktuf -->
  <g id="fazhoofazhoughktuf">
    <use href="#fazho" transform="translate(0,0)"/> 
    <use href="#o" transform="translate(250,-75)"/> 
    <use href="#fazhoughk" transform="translate(250,0)"/>
    <use href="#tuf" transform="translate(475,0)"/>  
  </g>
</defs>

<!-- ===== RENDERING ===== -->
<g stroke="black" stroke-width="10" stroke-linecap="square" fill="none">
  <!-- Copy this use tag for as many glyphs as you want. 
       Change the id to the romanized version of the glyph you want,
       or if you're using a word/number, change the id to that. -->
  <use href="#temp" transform="translate(50,0)"/> 
</g>
</svg>
